{"title":"Mission.Impossible.Ghost.Protocol.2011.BRRip.XviD-RLF","uid":7159412,"size":761755049,"categoryP":"video","categoryS":"movies","magnet":"?xt=urn:btih:9907f376db037c8340c8c72729fa8062d20bd60d&amp;dn=Mission.Impossible.Ghost.Protocol.2011.BRRip.XviD-RLF&amp;tr=udp%3A%2F%2Ftracker.openbittorrent.com%3A80&amp;tr=udp%3A%2F%2Fopen.demonii.com%3A1337&amp;tr=udp%3A%2F%2Ftracker.coppersurfer.tk%3A6969&amp;tr=udp%3A%2F%2Fexodus.desync.com%3A6969","seeders":0,"leechers":1,"uploader":"rlf-rls","files":-1,"time":1333562155,"description":"Mission.Impossible.Ghost.Protocol.2011.BRRip.XviD-RLF\n~~~~~~~~~~~~~~~~~~~~~~~~~~~~~~~~~~~~~~~~~~~~~~~~~~~~~ \n                                           \n\nGENERAL:\n\n\nComplete name                    : rlf-protocol.avi\nFormat                           : AVI\nFormat/Info                      : Audio Video Interleave\nFile size                        : 721 GiB\nDuration                         : 2h 12mn\nOverall bit rate                 : 759 Kbps\nLanguage                         : English\nSubs                             : Polish, English, English forced \nEncoder                          : Ralf\n\nVideo:\n\n                     \nFormat                           : MPEG-4 Visual\nFormat profile                   : Advanced Simple@L5\nFormat settings, BVOP            : 2\nFormat settings, QPel            : No\nFormat settings, GMC             : No warppoints\nFormat settings, Matrix          : H.263\nMuxing mode                      : Packed bitstream\nCodec ID                         : XVID\nDuration                         : 2h 12mn\nBit rate                         : 638 Kbps\nWidth                            : 688 pixels\nHeight                           : 288 pixels\nDisplay aspect ratio             : 2.35:1\nColor space                      : YUV\nChroma subsampling               : 4:2:0\nBit depth                        : 8 bits\nScan type                        : Progressive\nBits/(Pixel Frame)               : 0.134\nStream size                      : 606 MiB (84%)      \nStream size                      : Xvid 64\n\nAudio:\n\n\nFormat                           : MPEG Audio\nCodec ID/Hint                    : MP3\nDuration                         : 2h 12mn\nBit rate mode                    : Constant\nBit rate                         : 112 Kbps\nChannel(s)                       : 2 channels\nSampling rate                    : 48.0 KHz\nStream size                      : 106 MiB (15%)\nAlignment                        : Split accross interleaves\nInterleave, duration             : 42 ms (1.00 video frame)\nInterleave, preload duration     : 500 ms\n                   \n\nMOVIE INFO:\n\n\nThe IMF is shut down when it's implicated in the bombing of the Kremlin, \ncausing Ethan Hunt and his new team to go rogue to clear their \norganization's name. \n                                           &lt;a href=&quot;\nhttp://www.imdb.com/title/tt1229238/&quot; rel=&quot;nofollow&quot; target=&quot;_NEW&quot;&gt;\nhttp://www.imdb.com/title/tt1229238/&lt;/a&gt; &lt;a href=&quot;\nhttp://www.filmweb.pl/film/Mission%3A+Impossible+-+Ghost+Protocol-2011-483087&quot; rel=&quot;nofollow&quot; target=&quot;_NEW&quot;&gt;\nhttp://www.filmweb.pl/film/Mission%3A+Impossible+-+Ghost+Protocol-2011-483087&lt;/a&gt;\n\n\nSOURCE:\n\n\nSPARKS 720p.BluRay.x264 (THX)\n\n\nSCREENS:\n\n &lt;a href=&quot;\nhttp://www.postimg.com/65000/photo-64434.jpg&quot; rel=&quot;nofollow&quot; target=&quot;_NEW&quot;&gt;\nhttp://www.postimg.com/65000/photo-64434.jpg&lt;/a&gt; &lt;a href=&quot;\nhttp://www.postimg.com/65000/photo-64435.jpg&quot; rel=&quot;nofollow&quot; target=&quot;_NEW&quot;&gt;\nhttp://www.postimg.com/65000/photo-64435.jpg&lt;/a&gt; &lt;a href=&quot;\nhttp://www.postimg.com/65000/photo-64436.jpg&quot; rel=&quot;nofollow&quot; target=&quot;_NEW&quot;&gt;\nhttp://www.postimg.com/65000/photo-64436.jpg&lt;/a&gt; &lt;a href=&quot;\nhttp://www.postimg.com/65000/photo-64437.jpg&quot; rel=&quot;nofollow&quot; target=&quot;_NEW&quot;&gt;\nhttp://www.postimg.com/65000/photo-64437.jpg&lt;/a&gt;","torrent":{"xt":"urn:btih:9907f376db037c8340c8c72729fa8062d20bd60d","amp;dn":"Mission.Impossible.Ghost.Protocol.2011.BRRip.XviD-RLF","amp;tr":["udp%3A%2F%2Ftracker.openbittorrent.com%3A80","udp%3A%2F%2Fopen.demonii.com%3A1337","udp%3A%2F%2Ftracker.coppersurfer.tk%3A6969","udp%3A%2F%2Fexodus.desync.com%3A6969"],"infoHash":"9907f376db037c8340c8c72729fa8062d20bd60d","infoHashBuffer":{"type":"Buffer","data":[153,7,243,118,219,3,124,131,64,200,199,39,41,250,128,98,210,11,214,13]},"announce":[],"urlList":[]}}